<?xml version="1.0" encoding="UTF-8" standalone="no"?>
<!-- Created with Inkscape (http://www.inkscape.org/) -->

<svg
   xmlns:dc="http://purl.org/dc/elements/1.1/"
   xmlns:cc="http://creativecommons.org/ns#"
   xmlns:rdf="http://www.w3.org/1999/02/22-rdf-syntax-ns#"
   xmlns:svg="http://www.w3.org/2000/svg"
   xmlns="http://www.w3.org/2000/svg"
   xmlns:sodipodi="http://sodipodi.sourceforge.net/DTD/sodipodi-0.dtd"
   xmlns:inkscape="http://www.inkscape.org/namespaces/inkscape"
   width="210mm"
   height="297mm"
   viewBox="0 0 744.09448819 1052.3622047"
   id="svg37520"
   version="1.1"
   inkscape:version="0.91 r13725"
   sodipodi:docname="logo-cre-cyan.svg">
  <defs
     id="defs37522" />
  <sodipodi:namedview
     id="base"
     pagecolor="#ffffff"
     bordercolor="#666666"
     borderopacity="1.0"
     inkscape:pageopacity="0.0"
     inkscape:pageshadow="2"
     inkscape:zoom="0.35"
     inkscape:cx="-95"
     inkscape:cy="520"
     inkscape:document-units="px"
     inkscape:current-layer="layer1"
     showgrid="false"
     inkscape:window-width="1920"
     inkscape:window-height="1027"
     inkscape:window-x="1912"
     inkscape:window-y="-8"
     inkscape:window-maximized="1" />
  <metadata
     id="metadata37525">
    <rdf:RDF>
      <cc:Work
         rdf:about="">
        <dc:format>image/svg+xml</dc:format>
        <dc:type
           rdf:resource="http://purl.org/dc/dcmitype/StillImage" />
        <dc:title></dc:title>
      </cc:Work>
    </rdf:RDF>
  </metadata>
  <g
     inkscape:label="Layer 1"
     inkscape:groupmode="layer"
     id="layer1">
    <path
       style="fill:#0b2228"
       inkscape:connector-curvature="0"
       d="m 638.72262,781.46286 c 42.64814,2.4396 76.86744,51.80436 77.21011,110.3306 0.30302,58.53883 -33.61424,105.3623 -76.28249,104.67612 -43.35374,-0.77597 -79.02485,-50.19071 -79.46849,-110.45762 -0.16142,-60.22896 35.16704,-106.98886 78.54087,-104.5491 z"
       id="path19115" />
    <path
       style="fill:#0b2228"
       inkscape:connector-curvature="0"
       d="m 637.3314,459.34011 c 42.62789,5.03173 77.0487,56.31529 77.16975,114.75246 0.32285,58.44991 -33.59414,103.16413 -76.26238,99.93666 -43.31337,-3.40532 -79.26683,-54.85386 -79.40802,-114.99375 -0.34267,-60.15279 35.16703,-104.67627 78.50065,-99.69537 z"
       id="path19117" />
    <path
       style="fill:#0b2228"
       inkscape:connector-curvature="0"
       d="m 635.96016,137.73844 c 42.58767,7.57316 76.8472,60.80062 77.14964,119.14885 0.22231,58.34824 -33.57402,100.96594 -76.22202,95.20992 -43.29327,-5.99757 -79.16603,-59.49194 -79.40802,-119.55551 -0.24213,-60.05096 35.14677,-102.35091 78.4804,-94.80326 z"
       id="path19119" />
    <path
       style="fill:#0b2228"
       inkscape:connector-curvature="0"
       d="m 394.57023,767.54917 c 46.60032,2.69379 83.94515,54.33306 84.2275,115.43851 0.22089,61.15644 -36.80052,110.05123 -83.42095,109.31421 -47.38662,-0.86376 -86.4857,-52.56688 -86.78818,-115.59116 -0.14159,-63.02427 38.61512,-111.81726 85.98163,-109.16156 z"
       id="path19135" />
    <path
       style="fill:#ffffff"
       inkscape:connector-curvature="0"
       d="m 393.34031,430.89026 c 46.55994,5.51459 83.86428,59.22489 84.16674,120.26706 0.30302,61.04202 -36.75988,107.63682 -83.34009,104.11724 -47.36651,-3.68499 -86.44551,-57.67496 -86.74796,-120.59755 -0.1416,-62.90987 38.55479,-109.26337 85.92131,-103.78675 z"
       id="path19137" />
    <path
       style="fill:#0b2228"
       inkscape:connector-curvature="0"
       d="m 392.08998,94.752312 c 46.5196,8.259188 84.0056,64.129738 84.12667,125.082848 0.30303,60.95309 -36.71966,105.26077 -83.29987,98.92009 -47.32616,-6.49289 -86.54617,-62.71926 -86.68735,-125.54019 -0.12741,-62.77024 38.51429,-106.747429 85.86055,-98.462748 z"
       id="path19139" />
    <path
       style="fill:#0b2228"
       inkscape:connector-curvature="0"
       d="m 127.26891,752.30134 c 51.07685,2.97345 91.93022,57.11576 92.23267,121.09299 0,64.01547 -40.40975,115.15914 -91.52694,114.35853 C 75.929981,986.7999 32.898812,932.55577 32.737529,866.46927 32.455749,800.42086 75.264606,749.40421 127.26891,752.30134 Z"
       id="path19155" />
    <path
       style="fill:#0b2228"
       inkscape:connector-curvature="0"
       d="m 126.20012,399.69566 c 51.05674,6.02307 91.89,62.49073 92.19245,126.37906 0.16142,63.88831 -40.38963,112.52878 -91.48671,108.62786 C 74.941905,630.64916 31.910725,573.94022 31.789813,507.98059 31.628384,442.08468 74.216063,393.69823 126.20012,399.69566 Z"
       id="path19157" />
    <path
       style="fill:#0b2228"
       inkscape:connector-curvature="0"
       d="m 125.13149,47.700152 c 51.01636,9.021569 91.84962,67.839928 92.13183,131.601218 0.14159,63.79939 -40.34928,109.96217 -91.42596,102.99903 C 73.893351,275.15927 31.043572,215.97246 30.761377,150.14 30.479586,84.307532 73.227852,38.538686 125.13149,47.700152 Z"
       id="path19159" />
  </g>
</svg>
